<?xml version="1.0" encoding="UTF-8"?>
<svg id="Layer_1" data-name="Layer 1" xmlns="http://www.w3.org/2000/svg" viewBox="0 0 1080 1080">
  <defs>
    <style>
      .cls-1 {
        stroke: #ab00ea;
      }

      .cls-1, .cls-2, .cls-3, .cls-4 {
        fill: none;
        stroke-miterlimit: 10;
        stroke-width: 2.42px;
      }

      .cls-2 {
        stroke: #03ea94;
      }

      .cls-3 {
        stroke: #ff9f24;
      }

      .cls-4 {
        stroke: #00dcff;
      }
    </style>
  </defs>
  <g>
    <path class="cls-4" d="M688.42,760h0s0,0,0,0l-9.07-9.07-9.07-9.07-9.07-9.07c-5.01,5.01-5.01,13.13,0,18.14l9.07,9.07,9.07,9.07h0s0,0,0,0l-9.07,9.07-9.07,9.07c-5.01,5.01-5.01,13.13,0,18.14l9.07-9.07,9.07-9.07,9.07-9.07c5.01-5.01,5.01-13.13,0-18.14Z"/>
    <path class="cls-4" d="M641.62,731.56l-3.59,12.1-2.17,7.33h0s-11.51,38.83-11.51,38.83c-1.98,6.68,1.83,13.71,8.51,15.69l3.59-12.1,10.1-34.05,3.59-12.1c1.98-6.68-1.83-13.71-8.51-15.69Z"/>
    <path class="cls-4" d="M595.62,758.1v-9.55c0-3.48,2.83-6.32,6.31-6.32v-9.65c-8.8,0-15.96,7.16-15.96,15.96v9.23c0,3.48-2.83,6.31-6.31,6.31v9.76c3.48,0,6.31,2.83,6.31,6.32v9.55h.02c.17,8.65,7.25,15.64,15.95,15.64v-9.65c-3.48,0-6.31-2.83-6.31-6.31v-9.23c0-4.36-1.76-8.31-4.6-11.2,2.77-2.81,4.5-6.64,4.58-10.87h.02Z"/>
  </g>
  <g>
    <path class="cls-1" d="M771.54,855.27l8.75,8.75,8.75,8.75c4.83,4.83,12.67,4.83,17.5,0l-8.75-8.75-8.75-8.75-8.75-8.75c-4.83-4.83-12.67-4.83-17.5,0l8.75,8.75Z"/>
    <path class="cls-1" d="M791.67,874.46l-5.27,5.27-5.79,21.08c-.63,2.3-2.44,4.1-4.74,4.72l-50.83,13.74c-.12.03-.22-.08-.19-.19l13.74-50.83c.62-2.3,2.42-4.11,4.72-4.74l21.08-5.79,4.8-4.8"/>
    <polyline class="cls-1" points="800 866.23 805.96 860.27 783.9 838.21 777.62 844.49"/>
    <circle class="cls-1" cx="757.72" cy="886.4" r="7.93"/>
    <line class="cls-1" x1="725.33" y1="918.77" x2="752.11" y2="891.99"/>
    <line class="cls-1" x1="725.07" y1="919.27" x2="787.82" y2="919.27"/>
    <line class="cls-1" x1="792.31" y1="919.27" x2="805.96" y2="919.27"/>
  </g>
  <g>
    <path class="cls-3" d="M234.24,761.67c-6.22,0-11.27-5.05-11.27-11.27"/>
    <path class="cls-3" d="M233.91,761.67c3.08,0,5.57,2.49,5.57,5.57"/>
    <path class="cls-3" d="M222.97,764.22c0,8.06,6.53,14.6,14.6,14.6"/>
    <path class="cls-3" d="M263.13,726.45c0-22.15-17.95-40.1-40.1-40.1s-40.1,17.95-40.1,40.1c0,11.78,5.08,22.37,13.17,29.71,7.69-5.45,17.06-8.67,27.2-8.67s19.26,3.14,26.89,8.45c7.95-7.33,12.94-17.83,12.94-29.49Z"/>
    <path class="cls-3" d="M222.97,686.35c-13.42,8.3-22.37,23.16-22.37,40.1,0,8.73,2.37,16.9,6.51,23.91"/>
    <path class="cls-3" d="M222.97,686.35c13.42,8.3,22.37,23.16,22.37,40.1,0,8.65-2.33,16.75-6.39,23.71"/>
    <line class="cls-3" x1="182.81" y1="726.45" x2="263.13" y2="726.45"/>
    <line class="cls-3" x1="223.03" y1="686.35" x2="223.03" y2="747.52"/>
    <polyline class="cls-3" points="237.7 761.67 241.53 761.67 243.89 761.67 234.24 761.67"/>
    <path class="cls-3" d="M211.7,763.9c6.22,0,11.27-5.05,11.27-11.27"/>
    <path class="cls-3" d="M212.03,763.9c-3.08,0-5.57,2.49-5.57,5.57"/>
    <polyline class="cls-3" points="208.24 763.9 204.41 763.9 202.05 763.9 211.7 763.9"/>
    <line class="cls-3" x1="222.97" y1="764.22" x2="222.97" y2="747.46"/>
    <line class="cls-3" x1="189.55" y1="704.18" x2="256.6" y2="704.18"/>
  </g>
  <path class="cls-2" d="M516.29,1018.01c-264,0-478.01-214.01-478.01-478.01S252.3,61.99,516.29,61.99s478.01,214.01,478.01,478.01"/>
  <path class="cls-1" d="M224.74,831.55c-161.02-161.02-161.02-422.08,0-583.1s422.08-161.02,583.1,0c161.02,161.02,161.02,422.08,0,583.1"/>
  <path class="cls-3" d="M271.2,294.91c135.36-135.36,354.82-135.36,490.19,0,135.36,135.36,135.36,354.82,0,490.19-135.36,135.36-354.82,135.36-490.19,0"/>
  <path class="cls-4" d="M317.66,738.64c-109.7-109.7-109.7-287.57,0-397.27,109.7-109.7,287.57-109.7,397.27,0,109.7,109.7,109.7,287.57,0,397.27"/>
  <g>
    <g>
      <path class="cls-2" d="M980.75,593.92l-11.23-11.23c-6.2-6.2-16.26-6.2-22.46,0l11.23,11.23,11.23,11.23,11.23,11.23c6.2,6.2,16.26,6.2,22.46,0h0s0,0,0,0l11.23-11.23,11.23-11.23,11.23-11.23c-6.2-6.2-16.26-6.2-22.46,0l-11.23,11.23"/>
      <path class="cls-2" d="M969.52,605.16c-6.2-6.2-16.26-6.2-22.46,0l11.23,11.23,11.23,11.23,11.23,11.23c6.2,6.2,16.26,6.2,22.46,0h0s0,0,0,0l11.23-11.23,11.23-11.23,11.23-11.23c-6.2-6.2-16.26-6.2-22.46,0"/>
      <path class="cls-2" d="M950.2,627.83c.65-.62,1.38-1.23,2.17-1.81,2.57-1.89,5.89-3.57,9.8-4.98"/>
      <path class="cls-2" d="M983.87,654.19c-21.29-1.6-37.44-9.38-37.44-18.75"/>
      <path class="cls-2" d="M1032.42,644.23c-7.6,6.09-22.85,10.26-40.43,10.26"/>
      <path class="cls-2" d="M1021.8,621.04c9.65,3.49,15.75,8.65,15.75,14.4"/>
      <circle class="cls-2" cx="992.15" cy="577.15" r="10.68"/>
      <polyline class="cls-2" points="1003.22 593.92 991.98 605.15 980.75 593.92"/>
    </g>
    <polyline class="cls-2" points="997.42 659.62 992.29 654.49 997.42 649.35"/>
    <polyline class="cls-2" points="1041.72 630.39 1037.8 636.51 1031.69 632.59"/>
    <polyline class="cls-2" points="941.99 640.34 946.24 634.46 952.12 638.71"/>
  </g>
</svg>