<?xml version="1.0" encoding="UTF-8"?>
<svg id="Layer_1" data-name="Layer 1" xmlns="http://www.w3.org/2000/svg" viewBox="0 0 330 330">
  <defs>
    <style>
      .cls-1 {
        fill: none;
        stroke: #b400ff;
        stroke-miterlimit: 10;
        stroke-width: 4px;
      }
    </style>
  </defs>
  <path class="cls-1" d="M193.15,92.09l24.21,24.21,24.21,24.21c13.37,13.37,35.05,13.37,48.43,0l-24.21-24.21-24.21-24.21-24.21-24.21c-13.37-13.37-35.05-13.37-48.43,0l24.21,24.21Z"/>
  <path class="cls-1" d="M248.85,145.18l-14.58,14.58-16.01,58.33c-1.75,6.37-6.74,11.34-13.12,13.06l-140.65,38.01c-.32.09-.62-.21-.53-.53l38.01-140.65c1.72-6.38,6.69-11.37,13.06-13.12l58.33-16.01,13.27-13.27"/>
  <polyline class="cls-1" points="271.88 122.41 288.38 105.91 227.34 44.88 209.96 62.26"/>
  <circle class="cls-1" cx="154.91" cy="178.21" r="21.95"/>
  <line class="cls-1" x1="65.26" y1="267.8" x2="139.36" y2="193.7"/>
  <line class="cls-1" x1="64.55" y1="269.19" x2="238.18" y2="269.19"/>
  <line class="cls-1" x1="250.61" y1="269.19" x2="288.38" y2="269.19"/>
</svg>