<?xml version="1.0" encoding="UTF-8"?>
<svg id="Layer_1" data-name="Layer 1" xmlns="http://www.w3.org/2000/svg" viewBox="0 0 330 330">
  <defs>
    <style>
      .cls-1 {
        fill: none;
        stroke: #ff9f24;
        stroke-miterlimit: 10;
        stroke-width: 4px;
      }
    </style>
  </defs>
  <path class="cls-1" d="M194.13,239.56c-16.09,0-29.13-13.04-29.13-29.13"/>
  <path class="cls-1" d="M193.28,239.56c7.95,0,14.4,6.45,14.4,14.4"/>
  <path class="cls-1" d="M165,246.15c0,20.84,16.89,37.73,37.72,37.73"/>
  <path class="cls-1" d="M268.8,148.52c0-57.24-46.4-103.65-103.65-103.65s-103.65,46.4-103.65,103.65c0,30.45,13.13,57.83,34.03,76.79,19.87-14.08,44.1-22.41,70.31-22.41s49.79,8.1,69.51,21.84c20.55-18.94,33.44-46.07,33.44-76.23Z"/>
  <path class="cls-1" d="M165,44.88c-34.69,21.46-57.81,59.85-57.81,103.64,0,22.56,6.13,43.68,16.82,61.8"/>
  <path class="cls-1" d="M165,44.88c34.69,21.46,57.81,59.85,57.81,103.64,0,22.35-6.02,43.29-16.53,61.29"/>
  <line class="cls-1" x1="61.2" y1="148.52" x2="268.8" y2="148.52"/>
  <line class="cls-1" x1="165.15" y1="44.88" x2="165.15" y2="202.99"/>
  <polyline class="cls-1" points="203.08 239.56 212.98 239.56 219.07 239.56 194.13 239.56"/>
  <path class="cls-1" d="M135.87,245.31c16.09,0,29.13-13.04,29.13-29.13"/>
  <path class="cls-1" d="M136.72,245.31c-7.95,0-14.4,6.45-14.4,14.4"/>
  <polyline class="cls-1" points="126.92 245.31 117.02 245.31 110.93 245.31 135.87 245.31"/>
  <line class="cls-1" x1="165" y1="246.15" x2="165" y2="202.82"/>
  <line class="cls-1" x1="78.61" y1="90.95" x2="251.93" y2="90.95"/>
</svg>