<?xml version="1.0" encoding="UTF-8"?>
<svg id="Layer_4" data-name="Layer 4" xmlns="http://www.w3.org/2000/svg" viewBox="0 0 330 330">
  <defs>
    <style>
      .cls-1 {
        fill: none;
        stroke: #03ea94;
        stroke-miterlimit: 10;
        stroke-width: 4px;
      }
    </style>
  </defs>
  <g>
    <path class="cls-1" d="M136.9,116.6l-28.43-28.43c-15.7-15.7-41.16-15.7-56.86,0l28.43,28.43,28.43,28.43,28.43,28.43c15.7,15.7,41.16,15.7,56.86,0h0s0,0,.01-.01l28.43-28.43,28.43-28.43,28.43-28.43c-15.7-15.7-41.16-15.7-56.86,0l-28.43,28.43"/>
    <path class="cls-1" d="M108.47,145.06c-15.7-15.7-41.16-15.7-56.86,0l28.43,28.43,28.43,28.43,28.43,28.43c15.7,15.7,41.16,15.7,56.86,0h0s0,0,.01-.01l28.43-28.43,28.43-28.43,28.43-28.43c-15.7-15.7-41.16-15.7-56.86,0"/>
    <path class="cls-1" d="M59.58,202.44c1.64-1.57,3.48-3.11,5.5-4.59,6.51-4.78,14.92-9.04,24.8-12.62"/>
    <path class="cls-1" d="M144.8,269.14c-53.89-4.05-94.78-23.75-94.78-47.45"/>
    <path class="cls-1" d="M267.67,243.95c-19.23,15.43-57.84,25.96-102.33,25.96"/>
    <path class="cls-1" d="M240.8,185.24c24.42,8.84,39.86,21.89,39.86,36.46"/>
    <circle class="cls-1" cx="165.74" cy="74.14" r="27.04"/>
    <polyline class="cls-1" points="193.77 116.59 165.33 145.03 136.9 116.6"/>
  </g>
  <polyline class="cls-1" points="179.1 282.9 166.1 269.91 179.1 256.91"/>
  <polyline class="cls-1" points="291.22 208.92 281.31 224.39 265.83 214.48"/>
  <polyline class="cls-1" points="38.78 234.11 49.54 219.21 64.44 229.97"/>
</svg>