<svg width="26" height="17" viewBox="0 0 26 17" fill="none" xmlns="http://www.w3.org/2000/svg">
<g id="&#240;&#159;&#166;&#134;hello_ icon &#34;youtube&#34;">
<path id="Vector" d="M25.4219 2.57038C25.1135 1.56475 24.2596 0.776051 23.1599 0.497248C21.1349 2.37717e-05 12.9943 2.38919e-05 12.9943 2.38919e-05C12.9943 2.38919e-05 4.86921 -0.0119037 2.82312 0.497248C1.72905 0.776796 0.871168 1.56475 0.565999 2.57038C0.182102 4.47653 -0.00862834 6.40579 0.000299481 8.34399C-0.00375862 10.2695 0.186161 12.1958 0.565999 14.09C0.871168 15.0957 1.72905 15.8844 2.82312 16.1676C4.84811 16.6649 12.9943 16.6649 12.9943 16.6649C12.9943 16.6649 21.1146 16.6649 23.1599 16.1676C24.2596 15.8844 25.1135 15.0964 25.4219 14.09C25.7944 12.1958 25.9762 10.2695 25.9632 8.34399C25.9762 6.40579 25.7985 4.47653 25.4219 2.57038ZM10.3939 11.9125V4.75981L17.1701 8.34399L10.3939 11.9125Z" fill="#E6E6E6"/>
</g>
</svg>
