<svg width="14" height="16" viewBox="0 0 14 16" fill="none" xmlns="http://www.w3.org/2000/svg">
<g id="&#240;&#159;&#166;&#134; icon &#34;mic&#34;">
<path id="Vector" d="M7.00001 9.84741C8.0123 9.84651 8.98281 9.52699 9.69861 8.95896C10.4144 8.39092 10.8171 7.62076 10.8182 6.81744V3.02997C10.8182 2.22637 10.4159 1.45569 9.69987 0.887458C8.98382 0.319228 8.01265 0 7.00001 0C5.98736 0 5.01619 0.319228 4.30014 0.887458C3.5841 1.45569 3.18182 2.22637 3.18182 3.02997V6.81744C3.18296 7.62076 3.5856 8.39092 4.3014 8.95896C5.0172 9.52699 5.98771 9.84651 7.00001 9.84741ZM4.45455 3.02997C4.45455 2.49424 4.72273 1.98045 5.2001 1.60163C5.67746 1.22281 6.32491 1.00999 7.00001 1.00999C7.6751 1.00999 8.32255 1.22281 8.79991 1.60163C9.27728 1.98045 9.54546 2.49424 9.54546 3.02997V6.81744C9.54546 7.35317 9.27728 7.86696 8.79991 8.24578C8.32255 8.6246 7.6751 8.83742 7.00001 8.83742C6.32491 8.83742 5.67746 8.6246 5.2001 8.24578C4.72273 7.86696 4.45455 7.35317 4.45455 6.81744V3.02997Z" fill="#E6E6E6"/>
<path id="Vector_2" d="M12.7273 5.04993V6.81741C12.7273 9.32345 10.158 11.3624 7 11.3624C3.84205 11.3624 1.27273 9.32345 1.27273 6.81741V5.04993H0V6.81741C0 9.71018 2.80095 12.0932 6.36364 12.3492V15.1498H7.63636V12.3492C11.199 12.0932 14 9.71018 14 6.81741V5.04993H12.7273Z" fill="#E6E6E6"/>
</g>
</svg>
