<?xml version="1.0" encoding="UTF-8"?>
<svg id="Layer_1" data-name="Layer 1" xmlns="http://www.w3.org/2000/svg" viewBox="0 0 287.06 83.81">
  <defs>
    <style>
      .cls-1 {
        fill: #00f0ff;
      }

      .cls-1, .cls-2, .cls-3, .cls-4, .cls-5, .cls-6 {
        stroke-width: 2px;
      }

      .cls-2 {
        fill: #03ea94;
      }

      .cls-3 {
        fill: #f5f5f5;
      }

      .cls-4 {
        fill: none;
      }

      .cls-5 {
        fill: #b400ff;
      }

      .cls-6 {
        fill: #ff9f24;
      }
    </style>
  </defs>
  <g>
    <path class="cls-3" d="M71.27,56.41h-9.14l-10.56-29.04h7.54l7.6,20.89,7.57-20.89h7.54l-10.56,29.04Z"/>
    <path class="cls-3" d="M106.87,27.4h7.08v29.01h-7.08l-.32-3.6c-.79,1.3-1.84,2.35-3.15,3.15-1.3.8-2.85,1.2-4.63,1.2-2.15,0-4.16-.41-6.04-1.22-1.87-.81-3.52-1.93-4.95-3.37-1.42-1.43-2.53-3.08-3.34-4.96-.8-1.88-1.2-3.89-1.2-6.03s.38-4.01,1.15-5.83c.76-1.82,1.83-3.41,3.2-4.79,1.37-1.37,2.96-2.45,4.76-3.22,1.8-.77,3.73-1.16,5.8-1.16,1.92,0,3.63.43,5.15,1.28,1.52.85,2.81,1.93,3.87,3.25l-.32-3.71ZM98.6,50.35c1.51,0,2.84-.38,4-1.13,1.16-.75,2.07-1.77,2.73-3.06.66-1.29.99-2.7.99-4.25s-.33-2.99-.99-4.28c-.66-1.29-1.57-2.31-2.74-3.06-1.17-.75-2.5-1.13-3.99-1.13s-2.85.38-4.08,1.15-2.2,1.78-2.93,3.06c-.73,1.28-1.09,2.7-1.09,4.26s.37,2.99,1.1,4.26c.73,1.28,1.72,2.29,2.94,3.05,1.23.75,2.58,1.13,4.05,1.13Z"/>
    <path class="cls-3" d="M146.32,38.08v18.33h-7.08v-16.48c0-1.14-.28-2.18-.84-3.12-.56-.94-1.31-1.68-2.25-2.23-.94-.55-1.98-.83-3.12-.83s-2.18.28-3.12.83c-.94.55-1.68,1.3-2.23,2.23-.55.94-.83,1.98-.83,3.12v16.48h-7.08l-.03-29.01h7.08l.03,2.58c.99-1.04,2.17-1.87,3.54-2.48,1.37-.61,2.85-.91,4.44-.91,2.11,0,4.03.52,5.77,1.55,1.74,1.04,3.13,2.42,4.16,4.15,1.04,1.73,1.55,3.66,1.55,5.79Z"/>
    <path class="cls-3" d="M173.06,27.4h7.08v29.56c0,2.09-.43,3.99-1.28,5.7-.85,1.71-2.01,3.18-3.48,4.41s-3.15,2.18-5.05,2.84c-1.9.67-3.89,1-5.98,1s-3.98-.42-5.86-1.25c-1.88-.83-3.54-1.97-4.98-3.41-1.44-1.44-2.54-3.08-3.29-4.92l6.47-2.93c.39,1.06.97,2,1.76,2.8.78.8,1.69,1.43,2.71,1.89,1.02.45,2.09.68,3.19.68s2.2-.15,3.23-.46c1.04-.31,1.97-.76,2.8-1.35.83-.59,1.49-1.31,1.96-2.15.47-.84.71-1.79.71-2.86v-4.09c-.91,1.28-2.05,2.31-3.42,3.1s-2.96,1.19-4.76,1.19c-2.09,0-4.04-.4-5.86-1.19-1.82-.79-3.42-1.89-4.8-3.29-1.38-1.4-2.47-3.02-3.25-4.86-.78-1.84-1.18-3.81-1.18-5.92s.39-4.08,1.18-5.92c.78-1.84,1.87-3.46,3.25-4.86,1.38-1.4,2.98-2.5,4.8-3.29,1.82-.79,3.77-1.19,5.86-1.19,1.8,0,3.39.39,4.76,1.18,1.37.78,2.51,1.81,3.42,3.09v-3.51ZM164.97,50.35c1.49,0,2.81-.38,3.96-1.15,1.15-.76,2.05-1.79,2.71-3.07.66-1.29.99-2.69.99-4.22s-.33-2.96-1-4.24c-.67-1.28-1.58-2.3-2.73-3.07-1.15-.77-2.46-1.16-3.93-1.16s-2.77.38-3.97,1.15-2.16,1.78-2.87,3.06c-.72,1.28-1.07,2.7-1.07,4.26s.36,2.99,1.07,4.26c.71,1.28,1.67,2.29,2.87,3.05,1.2.75,2.52,1.13,3.97,1.13Z"/>
    <path class="cls-3" d="M199.2,57.17c-2.67,0-5.1-.69-7.3-2.06-2.2-1.37-3.94-3.22-5.25-5.54-1.3-2.32-1.96-4.88-1.96-7.69,0-2.11.38-4.09,1.13-5.93.75-1.85,1.79-3.47,3.12-4.87,1.33-1.4,2.87-2.5,4.63-3.29,1.76-.79,3.64-1.19,5.63-1.19,2.26,0,4.34.48,6.22,1.44,1.88.96,3.49,2.27,4.8,3.93,1.31,1.66,2.27,3.56,2.87,5.69.6,2.13.74,4.35.41,6.67h-21.21c.27,1.08.72,2.05,1.34,2.92.62.86,1.4,1.55,2.35,2.06.95.51,2.02.78,3.22.8,1.24.02,2.36-.28,3.38-.88,1.02-.61,1.86-1.44,2.54-2.48l7.22,1.68c-1.18,2.57-2.94,4.68-5.28,6.31-2.34,1.63-4.96,2.45-7.86,2.45ZM192.06,39.01h14.27c-.21-1.16-.66-2.21-1.35-3.15-.69-.94-1.53-1.69-2.54-2.25-1.01-.56-2.09-.84-3.25-.84s-2.23.28-3.22.83c-.99.55-1.82,1.3-2.51,2.23-.69.94-1.16,2-1.41,3.18Z"/>
    <path class="cls-3" d="M217.8,56.41V12.9h7.08v43.51h-7.08Z"/>
    <path class="cls-3" d="M235.43,23.66c-1.05,0-1.93-.34-2.64-1.03-.72-.69-1.07-1.55-1.07-2.6s.36-1.89,1.07-2.58c.71-.7,1.58-1.04,2.61-1.04s1.89.35,2.6,1.04c.71.7,1.06,1.56,1.06,2.58s-.35,1.91-1.05,2.6c-.7.69-1.56,1.03-2.58,1.03ZM231.83,27.4h7.08v29.01h-7.08v-29.01Z"/>
    <path class="cls-3" d="M267.08,27.4h7.08v29.01h-7.08l-.32-3.6c-.79,1.3-1.84,2.35-3.15,3.15-1.3.8-2.85,1.2-4.63,1.2-2.15,0-4.16-.41-6.04-1.22-1.87-.81-3.52-1.93-4.95-3.37-1.42-1.43-2.53-3.08-3.34-4.96s-1.2-3.89-1.2-6.03.38-4.01,1.15-5.83c.76-1.82,1.83-3.41,3.2-4.79s2.96-2.45,4.76-3.22c1.8-.77,3.73-1.16,5.8-1.16,1.92,0,3.63.43,5.15,1.28,1.52.85,2.81,1.93,3.87,3.25l-.32-3.71ZM258.81,50.35c1.51,0,2.84-.38,4-1.13s2.07-1.77,2.73-3.06c.66-1.29.99-2.7.99-4.25s-.33-2.99-.99-4.28c-.66-1.29-1.57-2.31-2.74-3.06-1.17-.75-2.5-1.13-3.99-1.13s-2.85.38-4.08,1.15-2.2,1.78-2.93,3.06c-.73,1.28-1.09,2.7-1.09,4.26s.37,2.99,1.1,4.26c.73,1.28,1.72,2.29,2.94,3.05,1.23.75,2.58,1.13,4.05,1.13Z"/>
  </g>
  <path class="cls-1" d="M21.02,24.53v24.35h0c-4.48,0-8.12-3.63-8.12-8.12v-8.12c0-4.48,3.63-8.12,8.12-8.12h0Z"/>
  <path class="cls-5" d="M45.37,16.41h-16.24c-4.48,0-8.12,3.63-8.12,8.12h24.35c4.48,0,8.12-3.63,8.12-8.12h-8.12Z"/>
  <path class="cls-2" d="M45.37,48.88h-24.35c0,4.48,3.63,8.12,8.12,8.12h24.35c0-4.48-3.63-8.12-8.12-8.12Z"/>
  <path class="cls-6" d="M37.25,32.64h-8.12c0,4.48,3.63,8.12,8.12,8.12h8.12c0-4.48-3.63-8.12-8.12-8.12Z"/>
  <rect class="cls-4" x="12.9" y="12.9" width="261.26" height="58.02"/>
  <rect class="cls-4" width="287.06" height="83.81"/>
</svg>