<?xml version="1.0" encoding="UTF-8"?>
<svg id="Layer_1" data-name="Layer 1" xmlns="http://www.w3.org/2000/svg" viewBox="0 0 330 330">
  <defs>
    <style>
      .cls-1 {
        fill: none;
        stroke: #00f0ff;
        stroke-miterlimit: 10;
        stroke-width: 4px;
      }
    </style>
  </defs>
  <path class="cls-1" d="M310.28,141.37h0s0,0-.01-.01l-25.1-25.1-25.1-25.1-25.1-25.1c-13.86,13.86-13.86,36.34,0,50.2l25.1,25.1,25.1,25.1h.01s0,.01,0,.01l-25.1,25.1-25.1,25.1c-13.86,13.86-13.86,36.34,0,50.2l25.1-25.1,25.1-25.1,25.1-25.1c13.86-13.86,13.86-36.34,0-50.2Z"/>
  <path class="cls-1" d="M180.76,62.69l-9.93,33.49-6.01,20.27h0s-31.86,107.43-31.86,107.43c-5.48,18.5,5.06,37.93,23.56,43.42l9.93-33.49,27.94-94.22,9.93-33.49c5.48-18.5-5.06-37.93-23.56-43.42Z"/>
  <path class="cls-1" d="M53.49,136.11v-26.42c0-9.63,7.84-17.48,17.47-17.48v-26.7c-24.36,0-44.17,19.82-44.17,44.18v25.53c0,9.63-7.84,17.47-17.47,17.47v27.01c9.63,0,17.47,7.84,17.47,17.48v26.42h.04c.48,23.94,20.07,43.28,44.13,43.28v-26.7c-9.63,0-17.47-7.84-17.47-17.47v-25.53c0-12.06-4.87-23-12.73-30.98,7.67-7.78,12.45-18.38,12.68-30.09h.04Z"/>
</svg>